<?xml version="1.0" standalone="no"?>
<!DOCTYPE svg PUBLIC "-//W3C//DTD SVG 20010904//EN"
 "http://www.w3.org/TR/2001/REC-SVG-20010904/DTD/svg10.dtd">
<svg version="1.0" xmlns="http://www.w3.org/2000/svg"
 width="1920.000000pt" height="1080.000000pt" viewBox="0 0 1920.000000 1080.000000"
 preserveAspectRatio="xMidYMid meet">

<g transform="translate(0.000000,1080.000000) scale(0.100000,-0.100000)"
fill="#000000" stroke="none">
<path d="M0 5400 l0 -5400 9600 0 9600 0 0 5400 0 5400 -9600 0 -9600 0 0
-5400z m5246 717 c155 -265 633 -1069 638 -1074 2 -3 57 85 122 194 64 109
123 204 130 212 10 11 37 -17 148 -150 75 -90 135 -170 134 -177 -2 -8 -84
-148 -183 -313 l-180 -298 -166 -1 -167 0 -222 368 c-123 202 -253 417 -290
477 -37 61 -103 169 -146 240 l-79 130 -3 -607 -2 -608 -230 0 -230 0 0 890 0
890 313 0 312 -1 101 -172z m2004 -717 l0 -890 -230 0 -230 0 2 605 c2 333 1
605 -2 605 -3 0 -57 -86 -120 -190 l-114 -190 -36 22 c-19 11 -96 57 -170 100
-74 44 -139 84 -144 88 -5 5 50 107 124 232 73 123 171 287 218 366 l85 142
308 0 309 0 0 -890z m1982 250 c181 -349 387 -749 459 -887 l130 -253 -253 0
-253 0 -95 190 -95 190 -535 -2 -535 -3 -95 -187 -95 -188 -247 0 c-137 0
-248 4 -248 8 0 4 90 183 201 398 110 214 253 490 316 614 64 124 119 229 124
234 8 9 339 -269 339 -285 0 -5 -27 -61 -60 -123 -33 -63 -60 -116 -60 -120 0
-3 162 -6 360 -6 198 0 360 3 359 8 0 4 -80 167 -178 362 l-179 355 -108 -217
c-60 -120 -112 -218 -115 -218 -3 0 -70 86 -147 190 l-142 191 41 82 c23 45
68 133 101 195 l60 112 311 -2 311 -3 328 -635z m767 313 c68 -181 184 -490
259 -688 74 -198 138 -364 142 -368 4 -4 49 99 100 230 51 131 96 244 100 251
4 8 61 -35 176 -133 93 -80 169 -149 169 -153 0 -4 -52 -139 -115 -299 l-115
-293 -315 0 -316 0 -93 238 c-97 245 -276 698 -433 1097 -50 127 -110 278
-134 338 l-42 107 247 0 247 0 123 -327z m1801 -364 c151 -380 278 -693 281
-695 7 -4 7 -6 274 711 118 319 224 600 234 625 l17 45 247 3 c136 1 247 0
247 -2 0 -5 -430 -1096 -610 -1551 l-88 -220 -318 0 -318 0 -168 430 c-149
380 -292 745 -336 858 -8 21 -18 35 -22 30 -7 -7 -111 -266 -225 -560 -16 -40
-31 -73 -34 -73 -6 0 -249 334 -278 381 -15 25 -12 36 117 360 73 184 135 337
137 342 2 4 131 7 286 7 l282 0 275 -691z"/>
</g>
</svg>
