<?xml version="1.0" encoding="utf-8"?>
<!-- Generator: Adobe Illustrator 25.3.1, SVG Export Plug-In . SVG Version: 6.00 Build 0)  -->
<svg version="1.1" id="Layer_1" xmlns="http://www.w3.org/2000/svg" xmlns:xlink="http://www.w3.org/1999/xlink" x="0px" y="0px"
	 viewBox="0 0 1000 1000" style="enable-background:new 0 0 1000 1000;" xml:space="preserve">
<style type="text/css">
	.st0{fill:url(#SVGID_1_);}
	.st1{fill-rule:evenodd;clip-rule:evenodd;fill:#FFFFFF;}
	.st2{clip-path:url(#SVGID_3_);fill:url(#SVGID_4_);}
	.st3{clip-path:url(#SVGID_6_);fill:url(#SVGID_7_);}
</style>
<linearGradient id="SVGID_1_" gradientUnits="userSpaceOnUse" x1="0" y1="500" x2="1000" y2="500">
	<stop  offset="0" style="stop-color:#191919"/>
	<stop  offset="1" style="stop-color:#030303"/>
</linearGradient>
<rect class="st0" width="1000" height="1000"/>
<polygon class="st1" points="268.8,533.8 248.4,509.4 229.9,540.5 176.2,450 131.7,450 131.7,578.2 164.7,578.2 164.7,490.3 
	218,578.2 241.8,578.2 "/>
<polygon class="st1" points="252.1,503.1 278.1,518.5 295.2,490.3 295.2,578.2 328.2,578.2 328.2,450 283.6,450 "/>
<polygon class="st1" points="383,487.1 336,578.2 372.3,578.2 386.1,550.9 462.9,550.9 476.6,578.2 513.1,578.2 446.7,450 
	402.2,450 387.7,478.1 408.5,506.2 424.6,474.3 450.6,526.4 398.4,526.4 407.5,508.2 "/>
<polygon class="st1" points="481.4,450 531.9,578.2 577.4,578.2 594.2,535.4 569.4,514.1 554.9,550.8 516.9,450 "/>
<polygon class="st1" points="595,450 575.2,499.7 596.6,529.3 615.3,481.7 653.1,578.2 698.7,578.2 749.3,450 713.6,450 
	675.8,550.9 635.5,450 "/>
<g>
	<defs>
		<path id="SVGID_2_" d="M836,448.1c-44.5,0-74.6,9.5-74.6,50.4h33c0-19.4,12.1-22.7,43.4-22.7c28.4,0,36.1,3.3,36.1,14.5
			c0,5.2-1.8,8.5-6.9,10.6v26.4c5.2,2,6.9,5.3,6.9,10.7c0,12.3-9.9,14.5-36.1,14.5c-28.2,0-43.4-2.2-43.4-22.7h-33
			c0,40.9,30.1,50.4,74.6,50.4c45.1,0,70.9-9.5,70.9-37.9c0-13.4-7.5-22.2-19.8-28c12.3-5.9,19.8-14.7,19.8-28
			C906.9,457.7,881.1,448.1,836,448.1"/>
	</defs>
	<clipPath id="SVGID_3_">
		<use xlink:href="#SVGID_2_"  style="overflow:visible;"/>
	</clipPath>
	<linearGradient id="SVGID_4_" gradientUnits="userSpaceOnUse" x1="761.3901" y1="514.0978" x2="906.8984" y2="514.0978">
		<stop  offset="0" style="stop-color:#402B5C"/>
		<stop  offset="1" style="stop-color:#AB509F"/>
	</linearGradient>
	<rect x="761.4" y="448.1" class="st2" width="145.5" height="131.9"/>
</g>
<g>
	<defs>
		<path id="SVGID_5_" d="M839.7,504c-5.8,0.1-12.5,0.2-20.2,0.2V524c8.4,0,15.6,0,21.7,0.2L839.7,504z"/>
	</defs>
	<clipPath id="SVGID_6_">
		<use xlink:href="#SVGID_5_"  style="overflow:visible;"/>
	</clipPath>
	<linearGradient id="SVGID_7_" gradientUnits="userSpaceOnUse" x1="819.4841" y1="514.1109" x2="841.1661" y2="514.1109">
		<stop  offset="0" style="stop-color:#402B5C"/>
		<stop  offset="1" style="stop-color:#AB509F"/>
	</linearGradient>
	<rect x="819.5" y="504" class="st3" width="21.7" height="20.1"/>
</g>
</svg>
